<svg width="332" height="332" viewBox="0 0 332 332" fill="none" xmlns="http://www.w3.org/2000/svg">
<g clip-path="url(#clip0_1_535)">
<path d="M178.076 106.53C180.317 102.854 180.047 98.1755 177.4 94.7813L103.468 0H245.972C250.724 0 255.215 2.17728 258.158 5.9086L321.457 86.1611C326.815 92.953 327.382 102.36 322.88 109.747L258.717 215.015C255.899 219.637 250.877 222.457 245.464 222.457H205.711L276.36 106.548C278.606 102.863 278.33 98.1721 275.667 94.777L233.792 41.3874H188.097L223.22 86.1698C228.546 92.96 229.098 102.342 224.607 109.711L153.009 227.177C150.775 230.841 151.035 235.503 153.662 238.896L225.044 331.099H82.574C77.8022 331.099 73.2956 328.904 70.3539 325.147L9.56727 247.511C4.25109 240.722 3.70262 231.347 8.19074 223.984L70.8045 121.258C73.6219 116.636 78.6439 113.815 84.0571 113.815H123.81L54.7387 227.136C52.493 230.82 52.7694 235.512 55.4323 238.907L95.2792 289.712H140.976L107.879 247.514C102.554 240.724 102.001 231.341 106.492 223.973L178.076 106.53Z" fill="white"/>
</g>
<defs>
<clipPath id="clip0_1_535">
<rect width="331.099" height="331.099" fill="white"/>
</clipPath>
</defs>
</svg>
